HIERARCHY
ROOT Hips
{
	OFFSET 0.000000 0.000000 0.000000
	CHANNELS 6 Xposition Yposition Zposition Zrotation Yrotation Xrotation 
	JOINT LeftUpLeg_virtual
	{
		OFFSET 0.000000 0.000000 0.000000
		CHANNELS 3 Zrotation Yrotation Xrotation
		JOINT LeftUpLeg
		{
			OFFSET 8.479694 -4.795517 -0.379053
			CHANNELS 3 Zrotation Yrotation Xrotation
			JOINT LeftLeg
			{
				OFFSET 0.485052 -32.551468 0.112863
				CHANNELS 3 Zrotation Yrotation Xrotation
				JOINT LeftFoot
				{
					OFFSET 0.438033 -32.635670 -3.012641
					CHANNELS 3 Zrotation Yrotation Xrotation
					JOINT LeftToeBase
					{
						OFFSET 0.970169 -13.225353 11.864223
						CHANNELS 3 Zrotation Yrotation Xrotation
						End Site
						{
							OFFSET 0.000000 0.000000 0.000000
						}
					}
				}
			}
		}
	}
	JOINT RightUpLeg_virtual
	{
		OFFSET 0.000000 0.000000 0.000000
		CHANNELS 3 Zrotation Yrotation Xrotation
		JOINT RightUpLeg
		{
			OFFSET -8.479694 -4.795517 -0.379053
			CHANNELS 3 Zrotation Yrotation Xrotation
			JOINT RightLeg
			{
				OFFSET -0.484100 -32.551483 0.112903
				CHANNELS 3 Zrotation Yrotation Xrotation
				JOINT RightFoot
				{
					OFFSET -0.438985 -32.635651 -3.012681
					CHANNELS 3 Zrotation Yrotation Xrotation
					JOINT RightToeBase
					{
						OFFSET -0.970169 -13.225354 11.864223
						CHANNELS 3 Zrotation Yrotation Xrotation
						End Site
						{
							OFFSET 0.000000 0.000000 0.000000
						}
					}
				}
			}
		}
	}
	JOINT Spine_virtual
	{
		OFFSET 0.000000 0.000000 0.000000
		CHANNELS 3 Zrotation Yrotation Xrotation
		JOINT Spine
		{
			OFFSET 0.000000 7.722015 1.166203
			CHANNELS 3 Zrotation Yrotation Xrotation
			JOINT Spine1
			{
				OFFSET 0.000000 12.024086 0.248766
				CHANNELS 3 Zrotation Yrotation Xrotation
				JOINT Spine2
				{
					OFFSET -0.000000 11.503036 -0.491240
					CHANNELS 3 Zrotation Yrotation Xrotation
					JOINT Neck_virtual
					{
						OFFSET 0.000000 0.000000 0.000000
						CHANNELS 3 Zrotation Yrotation Xrotation
						JOINT Neck
						{
							OFFSET 0.000000 18.430687 -3.123054
							CHANNELS 3 Zrotation Yrotation Xrotation
							JOINT Head
							{
								OFFSET -0.000000 9.051071 1.034021
								CHANNELS 3 Zrotation Yrotation Xrotation
								End Site
								{
									OFFSET 0.000000 0.000000 0.000000
								}
							}
						}
					}
					JOINT LeftShoulder_virtual
					{
						OFFSET 0.000000 0.000000 0.000000
						CHANNELS 3 Zrotation Yrotation Xrotation
						JOINT LeftShoulder
						{
							OFFSET 6.197824 13.665230 -4.064723
							CHANNELS 3 Zrotation Yrotation Xrotation
							JOINT LeftArm
							{
								OFFSET 7.778132 -0.187073 -1.709282
								CHANNELS 3 Zrotation Yrotation Xrotation
								JOINT LeftForeArm
								{
									OFFSET 21.954697 0.000000 -2.041093
									CHANNELS 3 Zrotation Yrotation Xrotation
									JOINT LeftHand
									{
										OFFSET 22.992908 0.000000 -0.870901
										CHANNELS 3 Zrotation Yrotation Xrotation
										End Site
										{
											OFFSET 0.000000 0.000000 0.000000
										}
									}
								}
							}
						}
					}
					JOINT RightShoulder_virtual
					{
						OFFSET 0.000000 0.000000 0.000000
						CHANNELS 3 Zrotation Yrotation Xrotation
						JOINT RightShoulder
						{
							OFFSET -6.197824 13.665230 -4.064723
							CHANNELS 3 Zrotation Yrotation Xrotation
							JOINT RightArm
							{
								OFFSET -7.778132 -0.187073 -1.709282
								CHANNELS 3 Zrotation Yrotation Xrotation
								JOINT RightForeArm
								{
									OFFSET -21.954697 0.000000 -2.041093
									CHANNELS 3 Zrotation Yrotation Xrotation
									JOINT RightHand
									{
										OFFSET -22.992908 0.000000 -0.870901
										CHANNELS 3 Zrotation Yrotation Xrotation
										End Site
										{
											OFFSET 0.000000 0.000000 0.000000
										}
									}
								}
							}
						}
					}
				}
			}
		}
	}
}
MOTION
Frames: 9
Frame Time: 0.033333
12.016542 82.514854 148.328522 179.935241 5.767174 -179.936156 -5.678123 -0.499528 11.950633 1.961866 -8.465991 -26.630624 8.093254 8.679132 23.690788 -4.602110 -4.238225 -3.406502 0.000000 0.000000 0.000000 -0.393574 -0.610963 10.326423 -0.247427 -1.586132 -16.785685 -1.744547 2.873194 22.055960 5.568250 11.848765 -7.253564 0.000000 0.000000 0.000000 3.373183 1.668903 3.022724 -4.589611 1.784473 -2.378301 1.083891 -3.735382 3.984645 0.035089 0.013368 -0.006247 0.852097 -2.720665 5.576627 2.130141 3.374747 -17.681743 0.000000 0.000000 0.000000 2.038661 -1.705677 2.746623 13.252281 1.950641 -6.370139 -21.643826 7.563062 -40.278722 -7.751418 -14.810355 -1.319359 0.000000 0.000000 0.000000 -1.721818 -0.461575 2.273393 9.122134 -8.681057 -9.006615 16.690774 -17.231210 -38.634538 -0.986055 25.944076 -6.293974 0.000000 0.000000 0.000000 
12.047309 82.502899 148.235580 -179.993339 5.671061 -179.913016 -5.633426 -0.441740 11.990389 1.973680 -8.459582 -26.663880 8.111172 8.629527 23.870601 -4.661139 -4.273815 -3.525923 0.000000 0.000000 0.000000 -0.390789 -0.357314 10.410987 -0.121190 -1.747017 -16.826555 -1.789993 2.382342 22.467805 5.697399 11.967180 -7.484865 0.000000 0.000000 0.000000 3.377557 1.743278 3.018345 -4.522575 1.753735 -2.445746 1.112220 -3.769057 3.983175 0.015010 -0.019468 0.052093 0.871156 -2.756961 5.512668 2.149790 3.528530 -17.653826 0.000000 0.000000 0.000000 2.035786 -1.698015 2.665069 13.284245 1.883224 -6.318062 -21.472959 7.465166 -40.236368 -7.699817 -14.904105 -1.304502 0.000000 0.000000 0.000000 -1.699685 -0.507006 2.255193 9.184647 -8.697168 -9.207480 16.559187 -17.153451 -38.636611 -0.803386 25.919130 -6.091772 0.000000 0.000000 0.000000 
12.047188 82.479202 148.103165 -179.986208 5.716109 -179.998489 -5.619208 -0.282373 12.060691 1.929641 -8.358172 -26.710980 8.098874 8.423762 24.121344 -4.652230 -4.244806 -3.741617 0.000000 0.000000 0.000000 -0.414660 -0.201206 10.537478 -0.102709 -1.581563 -16.859000 -1.885183 2.159344 22.618749 5.791762 11.906760 -7.529100 0.000000 0.000000 0.000000 3.332073 1.862293 3.104594 -4.503937 1.710106 -2.470905 1.170447 -3.800255 3.959999 0.024706 -0.036684 0.001900 0.884832 -2.763878 5.499268 2.232738 3.377679 -17.645319 0.000000 0.000000 0.000000 2.061821 -1.696499 2.661892 13.259040 1.649855 -6.227308 -21.272078 7.302385 -40.087381 -7.679812 -15.057782 -1.087266 0.000000 0.000000 0.000000 -1.656462 -0.515050 2.253289 9.273206 -8.740821 -9.170197 16.522296 -17.083649 -38.514863 -0.763424 25.910350 -6.105434 0.000000 0.000000 0.000000 
12.022653 82.461761 147.968430 179.896213 5.688893 -179.994992 -5.753131 -0.278339 12.080065 1.894761 -8.385478 -26.765442 8.135407 8.467709 24.404379 -4.717418 -4.267970 -3.888865 0.000000 0.000000 0.000000 -0.476346 -0.212520 10.643381 -0.123050 -1.661289 -16.896206 -1.916239 2.236934 22.800657 5.911743 11.862032 -7.576842 0.000000 0.000000 0.000000 3.228241 1.954980 3.105999 -4.562363 1.684400 -2.462465 1.214699 -3.791672 3.932517 0.097723 -0.025856 0.017332 0.900251 -2.761213 5.399275 2.311983 3.097794 -17.582695 0.000000 0.000000 0.000000 2.118199 -1.779339 2.609508 13.155704 1.359381 -6.255437 -20.983895 7.109908 -39.992137 -7.648121 -15.184873 -0.847488 0.000000 0.000000 0.000000 -1.614389 -0.629740 2.123371 9.383429 -8.853569 -8.901397 16.628179 -16.990932 -38.403241 -0.892916 25.916810 -6.229719 0.000000 0.000000 0.000000 
11.985828 82.446548 147.830170 -179.989473 5.910069 -179.958191 -5.709327 -0.264981 12.083166 1.899221 -8.202477 -26.810571 8.216675 8.489182 24.615172 -4.781561 -4.272898 -4.109348 0.000000 0.000000 0.000000 -0.427290 -0.081531 10.676672 -0.088579 -1.436775 -16.942684 -2.046321 2.043203 22.905794 6.155687 11.808700 -7.527124 0.000000 0.000000 0.000000 3.245008 2.005551 3.110617 -4.509511 1.681618 -2.433257 1.324287 -3.786672 3.884576 0.029340 -0.014677 0.027769 1.022630 -2.767269 5.288633 2.410861 3.088960 -17.471829 0.000000 0.000000 0.000000 2.234231 -1.833256 2.508133 13.065233 1.186048 -6.219148 -20.918614 6.917151 -39.709914 -7.561576 -15.378448 -0.651012 0.000000 0.000000 0.000000 -1.526880 -0.546067 2.006712 9.547960 -8.802524 -8.620862 16.639309 -17.006852 -38.488154 -0.855501 25.963902 -6.166406 0.000000 0.000000 0.000000 
11.958020 82.449005 147.697815 179.901131 5.985528 -179.973272 -5.805145 -0.335389 12.096218 1.893768 -8.336972 -26.754652 8.260367 8.663906 24.705361 -4.720915 -4.105494 -4.207842 0.000000 0.000000 0.000000 -0.468110 -0.164851 10.712401 -0.196420 -1.597486 -16.973090 -1.970346 2.405457 23.011797 6.218023 11.754526 -7.554250 0.000000 0.000000 0.000000 3.132781 1.999228 3.152744 -4.546191 1.626422 -2.341278 1.361154 -3.831316 3.862879 -0.000156 -0.068064 0.012359 1.170843 -2.681613 5.183562 2.509606 2.953623 -17.369716 0.000000 0.000000 0.000000 2.356960 -1.718466 2.420369 12.893014 0.844882 -6.029282 -20.944502 6.810881 -39.518590 -7.405781 -15.676734 -0.346556 0.000000 0.000000 0.000000 -1.373885 -0.483472 1.927329 9.667103 -8.699683 -8.201152 16.688874 -16.992136 -38.680017 -0.936614 26.040764 -6.205854 0.000000 0.000000 0.000000 
11.931862 82.465515 147.562653 179.929272 6.298120 -179.880190 -5.834799 -0.336441 12.135702 1.886385 -8.268600 -26.704593 8.309524 8.808111 24.712949 -4.712683 -3.962187 -4.279528 0.000000 0.000000 0.000000 -0.413713 -0.056407 10.731660 -0.249219 -1.542427 -17.066776 -1.983107 2.558156 23.055059 6.328421 11.703914 -7.479919 0.000000 0.000000 0.000000 3.071808 2.075191 3.196814 -4.508666 1.705155 -2.287698 1.448419 -3.745525 3.805159 0.013764 0.003178 0.024406 1.217224 -2.718647 5.082297 2.573545 2.710958 -17.221697 0.000000 0.000000 0.000000 2.375267 -1.727008 2.406821 12.693440 0.552756 -5.914278 -20.891512 6.768082 -39.387013 -7.216138 -15.876071 -0.002178 0.000000 0.000000 0.000000 -1.319661 -0.577638 1.862374 9.656343 -8.712227 -8.088120 16.736007 -17.041885 -39.163700 -0.767709 26.097782 -5.995897 0.000000 0.000000 0.000000 
11.893622 82.483047 147.433533 179.953082 6.402303 -179.968777 -5.868371 -0.395873 12.252770 1.927096 -8.351749 -26.601425 8.237041 8.738513 24.751740 -4.588014 -3.694508 -4.387997 0.000000 0.000000 0.000000 -0.354561 -0.129404 10.869819 -0.276377 -1.362082 -17.118592 -2.129207 2.506988 23.025860 6.564879 11.706753 -7.303645 0.000000 0.000000 0.000000 2.988633 2.050006 3.368251 -4.365304 1.695963 -2.195058 1.495910 -3.719259 3.767299 -0.039502 -0.000706 0.024741 1.307646 -2.643368 4.858276 2.588708 2.555841 -17.127638 0.000000 0.000000 0.000000 2.468043 -1.722465 2.254548 12.523194 0.279564 -5.738788 -20.904608 6.900639 -39.269012 -7.041397 -16.126585 0.690386 0.000000 0.000000 0.000000 -1.235149 -0.571248 1.669828 9.605929 -8.561288 -7.827320 16.781508 -17.294510 -39.717314 -0.675615 26.243045 -5.832388 0.000000 0.000000 0.000000 
11.851254 82.497841 147.330261 -179.965294 6.651039 -179.896200 -5.827001 -0.279956 12.307847 2.003249 -8.532358 -26.672855 8.334629 9.059227 24.697792 -4.718390 -3.706093 -4.351348 0.000000 0.000000 0.000000 -0.204648 -0.032820 10.921248 -0.366065 -1.231792 -17.297464 -2.191437 2.707815 23.188979 6.505104 11.635069 -7.302603 0.000000 0.000000 0.000000 3.028123 2.033341 3.533633 -4.292517 1.697658 -2.202049 1.574775 -3.720043 3.710742 0.020638 -0.022584 0.037094 1.291195 -2.719228 4.771413 2.575864 2.265250 -16.965024 0.000000 0.000000 0.000000 2.444458 -1.631511 2.120108 12.410602 0.122537 -5.467779 -21.122201 7.306443 -38.912493 -6.706730 -16.391675 1.002780 0.000000 0.000000 0.000000 -1.251593 -0.484059 1.634835 9.567027 -8.270712 -7.350866 16.917441 -17.492318 -40.261199 -0.648403 26.433057 -5.662869 0.000000 0.000000 0.000000 
